<svg viewBox="0 0 32 32" xmlns="http://www.w3.org/2000/svg"><defs><style>.cls-1{fill:none;stroke:#000;stroke-linejoin:round;stroke-width:2px;}</style></defs><title></title><g data-name="09-Video call" id="_09-Video_call"><path d="M29,24h2v2a2,2,0,0,1-2,2H3a2,2,0,0,1-2-2V24H12l1,1h6l1-1Z" stroke="#ffffff" stroke-width="2px" stroke-linecap="butt" original-stroke="#000000" fill="none"></path><polyline points="3 24 3 4 29 4 29 24" stroke="#ffffff" stroke-width="2px" stroke-linecap="butt" original-stroke="#000000" fill="none"></polyline><polygon points="10 20 7 20 7 14 9 14 10 14 10 20" stroke="#ffffff" stroke-width="2px" stroke-linecap="butt" original-stroke="#000000" fill="none"></polygon><polygon points="25 20 22 20 22 14 23 14 25 14 25 20" stroke="#ffffff" stroke-width="2px" stroke-linecap="butt" original-stroke="#000000" fill="none"></polygon><path d="M9,14a7,7,0,1,1,14,0" stroke="#ffffff" stroke-width="2px" stroke-linecap="butt" original-stroke="#000000" fill="none"></path><path d="M13,14a3,3,0,1,1,3,3v2" stroke="#ffffff" stroke-width="2px" stroke-linecap="butt" original-stroke="#000000" fill="none"></path><line x1="15" x2="17" y1="21" y2="21" stroke="#ffffff" stroke-width="2px" stroke-linecap="butt" original-stroke="#000000" fill="none"></line></g></svg>